<svg width="6" height="11" viewBox="0 0 6 11" fill="none" xmlns="http://www.w3.org/2000/svg">
<g clip-path="url(#clip0_6190_21377)">
<path d="M0.0898857 3.8189C-0.222641 4.36681 0.173168 5.0484 0.803918 5.0484H1.8296L0.0903249 8.09258C-0.22264 8.64048 0.172729 9.32208 0.803918 9.32208H4.36444C4.99563 9.32208 5.391 8.64048 5.07803 8.09258L3.33788 5.0484H4.36356C4.99475 5.0484 5.39056 4.36681 5.0776 3.8189L3.29712 0.70328C2.98152 0.15099 2.18552 0.15099 1.86993 0.70328L0.0898857 3.8189Z" fill="#323C49"/>
</g>
<g clip-path="url(#clip1_6190_21377)">
<path d="M5.0234 6.72016C5.33592 6.17226 4.94011 5.49066 4.30936 5.49066H3.28368L5.02296 2.44649C5.33592 1.89858 4.94055 1.21698 4.30936 1.21698H0.748842C0.117653 1.21698 -0.277717 1.89858 0.0352477 2.44649L1.7754 5.49066H0.749719C0.118529 5.49066 -0.277279 6.17226 0.035686 6.72016L1.81617 9.83578C2.13176 10.3881 2.92776 10.3881 3.24335 9.83578L5.0234 6.72016Z" fill="#D7D7D7"/>
</g>
<defs>
<clipPath id="clip0_6190_21377">
<rect width="5.25991" height="4.82158" fill="white" transform="matrix(-1 0 0 -1 5.25977 4.82031)"/>
</clipPath>
<clipPath id="clip1_6190_21377">
<rect width="5.25991" height="4.82158" fill="white" transform="translate(0 5.48047)"/>
</clipPath>
</defs>
</svg>
